# Blender 4.5.0
# www.blender.org
mtllib chair_1.mtl
o Cube
v 0.205000 0.400000 -0.175000
v 0.205000 0.450000 0.175000
v -0.205000 0.400000 -0.175000
v -0.205000 0.450000 0.175000
v 0.205000 0.450000 -0.225000
v -0.205000 0.450000 -0.225000
v -0.205000 0.400000 0.225000
v 0.205000 0.400000 0.225000
v -0.205000 0.900000 -0.275000
v 0.205000 0.900000 -0.275000
v 0.225000 0.400000 -0.175000
v 0.225000 0.450000 0.175000
v 0.225000 0.450000 -0.225000
v 0.225000 0.400000 0.225000
v 0.225000 0.900000 -0.275000
v -0.225000 0.400000 -0.175000
v -0.225000 0.450000 0.175000
v -0.225000 0.450000 -0.225000
v -0.225000 0.400000 0.225000
v -0.225000 0.900000 -0.275000
v 0.205000 0.400000 0.135000
v 0.205000 0.360000 0.175000
v 0.205000 0.394641 0.155000
v 0.205000 0.380000 0.169641
v -0.205000 0.360000 0.175000
v -0.205000 0.400000 0.135000
v -0.205000 0.380000 0.169641
v -0.205000 0.394641 0.155000
v -0.205000 0.450000 0.185000
v -0.205000 0.410000 0.225000
v -0.205000 0.444641 0.205000
v -0.205000 0.430000 0.219641
v 0.205000 0.410000 0.225000
v 0.205000 0.450000 0.185000
v 0.205000 0.430000 0.219641
v 0.205000 0.444641 0.205000
v 0.225000 0.360000 0.175000
v 0.225000 0.400000 0.135000
v 0.225000 0.440000 0.175000
v 0.225000 0.400000 0.215000
v 0.225000 0.380000 0.169641
v 0.225000 0.394641 0.155000
v 0.225000 0.450000 0.185000
v 0.225000 0.410000 0.225000
v 0.225000 0.444641 0.205000
v 0.225000 0.430000 0.219641
v -0.225000 0.400000 0.135000
v -0.225000 0.360000 0.175000
v -0.225000 0.400000 0.215000
v -0.225000 0.440000 0.175000
v -0.225000 0.394641 0.155000
v -0.225000 0.380000 0.169641
v -0.225000 0.410000 0.225000
v -0.225000 0.450000 0.185000
v -0.225000 0.430000 0.219641
v -0.225000 0.444641 0.205000
v 0.205000 0.490000 -0.175000
v 0.205000 0.450000 -0.135000
v 0.205000 0.470000 -0.169641
v 0.205000 0.455359 -0.155000
v -0.205000 0.490000 -0.175000
v -0.205000 0.450000 -0.135000
v -0.205000 0.470000 -0.169641
v -0.205000 0.455359 -0.155000
v 0.205000 0.440000 -0.225000
v 0.205000 0.400000 -0.185000
v 0.205000 0.360000 -0.225000
v 0.205425 0.400000 -0.225000
v 0.205000 0.420000 -0.219641
v 0.205000 0.405359 -0.205000
v -0.205000 0.400000 -0.185000
v -0.205000 0.440000 -0.225000
v -0.205425 0.400000 -0.225000
v -0.205000 0.360000 -0.225000
v -0.205000 0.405359 -0.205000
v -0.205000 0.420000 -0.219641
v 0.225000 0.490000 -0.175000
v 0.225000 0.450000 -0.135000
v 0.225000 0.410000 -0.175000
v 0.225000 0.450000 -0.215000
v 0.225000 0.470000 -0.169641
v 0.225000 0.455359 -0.155000
v 0.225000 0.400000 -0.185000
v 0.225000 0.440000 -0.225000
v 0.225000 0.405359 -0.205000
v 0.225000 0.420000 -0.219641
v -0.225000 0.450000 -0.135000
v -0.225000 0.490000 -0.175000
v -0.225000 0.450000 -0.215000
v -0.225000 0.410000 -0.175000
v -0.225000 0.455359 -0.155000
v -0.225000 0.470000 -0.169641
v -0.225000 0.440000 -0.225000
v -0.225000 0.400000 -0.185000
v -0.225000 0.420000 -0.219641
v -0.225000 0.405359 -0.205000
v -0.205000 0.900000 -0.265000
v -0.205000 0.890185 -0.253085
v 0.205000 0.900000 -0.265000
v 0.205000 0.890185 -0.253085
v 0.225000 0.900000 -0.265000
v 0.225000 0.890185 -0.253085
v -0.225000 0.890185 -0.253085
v -0.225000 0.900000 -0.265000
v 0.205000 0.009923 -0.223760
v 0.205000 0.000000 -0.235000
v -0.205000 0.000000 -0.235000
v -0.205000 0.009923 -0.223760
v 0.205000 0.000000 -0.265000
v 0.205000 0.009905 -0.273624
v -0.205000 0.009905 -0.273624
v -0.205000 0.000000 -0.265000
v -0.205000 0.000000 0.235000
v -0.205000 0.009905 0.223624
v 0.205000 0.009905 0.223624
v 0.205000 0.000000 0.235000
v -0.205000 0.000000 0.265000
v -0.205000 0.009923 0.273760
v 0.205000 0.000000 0.265000
v 0.205000 0.009923 0.273760
v 0.225000 0.000000 0.235000
v 0.225000 0.009905 0.223624
v 0.225000 0.009923 0.273760
v 0.225000 0.000000 0.265000
v -0.225000 0.009905 0.223624
v -0.225000 0.000000 0.235000
v -0.225000 0.000000 0.265000
v -0.225000 0.009923 0.273760
vn -0.0000 -0.1104 -0.9939
vn 1.0000 -0.0000 -0.0000
vn -1.0000 -0.0000 -0.0000
vn -0.0000 -0.9659 -0.2588
vn -0.0000 -0.7071 -0.7071
vn -0.0000 -0.2588 -0.9659
vn -0.0000 0.9659 0.2588
vn -0.0000 0.7071 0.7071
vn -0.0000 0.2588 0.9659
vn -0.0000 -1.0000 -0.0000
vn -0.0000 -0.0000 1.0000
vn -0.0000 1.0000 -0.0000
vn 0.9999 -0.0000 0.0142
vn -0.9999 -0.0000 0.0142
vn -0.0000 -0.0000 -1.0000
vn -0.0000 0.7719 0.6358
vn -0.0000 0.1915 0.9815
vn -0.0000 -0.6618 0.7497
vn -0.0000 -0.7497 0.6618
vn -0.0000 -0.6567 -0.7542
vn -0.0000 -0.7542 -0.6567
vn -0.0000 -0.1240 0.9923
vn -0.0000 0.1237 -0.9923
vn -0.0000 -0.1376 -0.9905
vn -0.0000 0.1240 0.9923
vt 0.429675 0.188320
vt 0.429675 0.418450
vt 0.682257 0.418450
vt 0.682257 0.188320
vt 0.682257 0.177094
vt 0.429675 0.177094
vt 0.429675 0.429675
vt 0.682257 0.429675
vt 0.046075 0.177376
vt 0.040125 0.187360
vt 0.039964 0.198980
vt 0.045635 0.209125
vt 0.013886 0.208684
vt 0.014327 0.176936
vt 0.385940 0.131180
vt 0.375796 0.136851
vt 0.364175 0.136690
vt 0.354192 0.130740
vt 0.353751 0.162488
vt 0.385499 0.162929
vt 0.498039 0.811680
vt 0.498039 0.581550
vt 0.486813 0.581550
vt 0.486813 0.811680
vt 0.478595 0.581550
vt 0.478595 0.811680
vt 0.988496 0.219336
vt 0.758366 0.219337
vt 0.758366 0.230562
vt 0.988496 0.230562
vt 0.758366 0.199336
vt 0.988496 0.199336
vt 0.988496 0.210562
vt 0.758366 0.210562
vt 0.988496 0.218780
vt 0.758366 0.218780
vt 0.241634 0.581550
vt 0.241634 0.811680
vt 0.230408 0.811680
vt 0.230408 0.581550
vt 0.230408 0.570325
vt 0.241634 0.570325
vt 0.747140 0.218780
vt 0.747140 0.210562
vt 0.747140 0.199336
vt 0.747140 0.230562
vt 0.747140 0.219337
vt 0.478595 0.570325
vt 0.486813 0.570325
vt 0.498039 0.570325
vt 0.230408 0.822906
vt 0.241634 0.822906
vt 0.999722 0.218780
vt 0.999722 0.210562
vt 0.999722 0.199336
vt 0.498039 0.822906
vt 0.486813 0.822906
vt 0.478595 0.822906
vt 0.999722 0.219336
vt 0.999722 0.230562
vt 0.672039 0.811680
vt 0.672039 0.581550
vt 0.672039 0.570325
vt 0.672039 0.822906
vt 0.224796 0.811680
vt 0.224796 0.822906
vt 0.224796 0.581550
vt 0.758366 0.193723
vt 0.988496 0.193723
vt 0.999722 0.193723
vt 0.747140 0.193723
vt 0.224796 0.570325
vt 0.009863 0.212598
vt 0.005949 0.208574
vt 0.000278 0.198430
vt 0.000440 0.186809
vt 0.006390 0.176826
vt 0.010413 0.172912
vt 0.389413 0.166953
vt 0.349727 0.166402
vt 0.353641 0.170425
vt 0.363624 0.176375
vt 0.375245 0.176537
vt 0.385389 0.170866
vt 0.425021 0.466871
vt 0.414204 0.471121
vt 0.406962 0.480210
vt 0.405234 0.491702
vt 0.380402 0.471915
vt 0.402712 0.469393
vt 0.405234 0.522668
vt 0.406962 0.511176
vt 0.414204 0.502087
vt 0.425021 0.497837
vt 0.402712 0.500359
vt 0.380402 0.502881
vt 0.130740 0.369079
vt 0.136690 0.359096
vt 0.136851 0.347475
vt 0.131181 0.337330
vt 0.162929 0.337771
vt 0.162488 0.369519
vt 0.514146 0.045635
vt 0.524290 0.039964
vt 0.535911 0.040125
vt 0.545894 0.046075
vt 0.546335 0.014327
vt 0.514586 0.013886
vt 0.758366 0.019722
vt 0.747140 0.019722
vt 0.747140 0.008496
vt 0.758366 0.008496
vt 0.747140 0.000278
vt 0.758366 0.000278
vt 0.242191 0.581550
vt 0.242191 0.570325
vt 0.253417 0.570325
vt 0.253417 0.581550
vt 0.677652 0.811680
vt 0.677652 0.822906
vt 0.688878 0.822906
vt 0.688878 0.811680
vt 0.697096 0.822906
vt 0.697096 0.811680
vt 0.412837 0.418450
vt 0.412837 0.429675
vt 0.424062 0.429675
vt 0.424062 0.418450
vt 0.988496 0.019722
vt 0.988496 0.008496
vt 0.988496 0.000278
vt 0.242191 0.811680
vt 0.253417 0.811680
vt 0.424062 0.188320
vt 0.424062 0.177094
vt 0.412837 0.177094
vt 0.412837 0.188320
vt 0.697096 0.581550
vt 0.697096 0.570325
vt 0.688878 0.570325
vt 0.688878 0.581550
vt 0.677652 0.570325
vt 0.677652 0.581550
vt 0.999721 0.019722
vt 0.999721 0.008496
vt 0.999721 0.000278
vt 0.242191 0.822906
vt 0.253417 0.822906
vt 0.401611 0.418688
vt 0.401611 0.188081
vt 0.166953 0.333858
vt 0.170866 0.337881
vt 0.176537 0.348026
vt 0.176376 0.359646
vt 0.170425 0.369630
vt 0.166402 0.373543
vt 0.510673 0.009863
vt 0.550358 0.010413
vt 0.546445 0.006390
vt 0.536462 0.000440
vt 0.524841 0.000278
vt 0.514696 0.005949
vt 0.177094 0.459626
vt 0.188319 0.459626
vt 0.188319 0.466314
vt 0.177094 0.466314
vt 0.418450 0.466314
vt 0.418450 0.459626
vt 0.429675 0.466314
vt 0.429675 0.459626
vt 0.478038 0.581550
vt 0.478038 0.811680
vt 0.188319 0.454013
vt 0.418450 0.454013
vt 0.429675 0.454013
vt 0.478038 0.822906
vt 0.478038 0.570325
vt 0.177094 0.454013
vt 0.004906 0.569768
vt 0.000992 0.565744
vt 0.000278 0.557109
vt 0.733924 0.176537
vt 0.742559 0.175823
vt 0.746583 0.171909
vt 0.000278 0.822906
vt 0.000278 0.811680
vt 0.005848 0.811680
vt 0.005848 0.822906
vt 0.177094 0.551951
vt 0.407224 0.551951
vt 0.407224 0.545641
vt 0.177094 0.545641
vt 0.177094 0.188320
vt 0.177094 0.418450
vt 0.182653 0.418450
vt 0.182653 0.188320
vt 0.418450 0.430232
vt 0.188319 0.430232
vt 0.188319 0.436617
vt 0.418450 0.436617
vt 0.000278 0.581550
vt 0.005848 0.581550
vt 0.000278 0.570325
vt 0.005848 0.570325
vt 0.177094 0.436617
vt 0.177094 0.430232
vt 0.429675 0.430232
vt 0.429675 0.436617
vt 0.747140 0.427625
vt 0.977270 0.427625
vt 0.977270 0.646573
vt 0.747140 0.646573
vt 0.407224 0.528803
vt 0.177094 0.528803
vt 0.405865 0.497280
vt 0.185228 0.494681
vt 0.178985 0.489037
vt 0.177094 0.472305
vt 0.182074 0.466871
vt 0.405865 0.528246
vt 0.182074 0.497837
vt 0.177094 0.503271
vt 0.178985 0.520003
vt 0.185228 0.525647
vt 0.379159 0.418450
vt 0.379159 0.188320
vt 0.758366 0.427068
vt 0.988496 0.427068
vt 0.188319 0.453456
vt 0.418450 0.453456
vt 0.429675 0.453456
vt 0.999722 0.427068
vt 0.177094 0.453456
vt 0.747140 0.427068
vt 0.148284 0.000637
vt 0.155705 0.000278
vt 0.167445 0.012349
vt 0.167912 0.020803
vt 0.197618 0.008903
vt 0.189165 0.009370
vt 0.177094 0.021110
vt 0.177452 0.028531
s 0
usemtl texture
f 5/1/1 6/2/1 9/3/1 10/4/1
f 5/1/1 10/4/1 15/5/1 13/6/1
f 9/3/1 6/2/1 18/7/1 20/8/1
f 37/9/2 41/10/2 42/11/2 38/12/2 39/13/2 40/14/2
f 47/15/3 51/16/3 52/17/3 48/18/3 49/19/3 50/20/3
f 26/21/4 21/22/4 23/23/4 28/24/4
f 28/24/5 23/23/5 24/25/5 27/26/5
f 27/27/6 24/28/6 22/29/6 25/30/6
f 34/31/7 29/32/7 31/33/7 36/34/7
f 36/34/8 31/33/8 32/35/8 35/36/8
f 35/37/9 32/38/9 30/39/9 33/40/9
f 33/40/9 44/41/9 46/42/9 35/37/9
f 35/36/8 46/43/8 45/44/8 36/34/8
f 36/34/7 45/44/7 43/45/7 34/31/7
f 37/46/6 22/29/6 24/28/6 41/47/6
f 41/48/5 24/25/5 23/23/5 42/49/5
f 42/49/4 23/23/4 21/22/4 38/50/4
f 53/51/9 30/39/9 32/38/9 55/52/9
f 55/53/8 32/35/8 31/33/8 56/54/8
f 56/54/7 31/33/7 29/32/7 54/55/7
f 47/56/4 26/21/4 28/24/4 51/57/4
f 51/57/5 28/24/5 27/26/5 52/58/5
f 52/59/6 27/27/6 25/30/6 48/60/6
f 3/61/10 1/62/10 21/22/10 26/21/10
f 21/22/10 1/62/10 11/63/10 38/50/10
f 3/61/10 26/21/10 47/56/10 16/64/10
f 7/65/11 30/39/11 53/51/11 19/66/11
f 8/67/11 33/40/11 30/39/11 7/65/11
f 2/68/12 4/69/12 29/32/12 34/31/12
f 29/32/12 4/69/12 17/70/12 54/55/12
f 2/68/12 34/31/12 43/45/12 12/71/12
f 33/40/11 8/67/11 14/72/11 44/41/11
f 40/14/2 39/13/2 12/73/2 43/74/2 45/75/2 46/76/2 44/77/2 14/78/2
f 17/79/3 50/20/3 49/19/3 19/80/3 53/81/3 55/82/3 56/83/3 54/84/3
f 65/85/13 69/86/13 70/87/13 66/88/13 67/89/13 68/90/13
f 71/91/14 75/92/14 76/93/14 72/94/14 73/95/14 74/96/14
f 77/97/2 81/98/2 82/99/2 78/100/2 79/101/2 80/102/2
f 87/103/3 91/104/3 92/105/3 88/106/3 89/107/3 90/108/3
f 58/109/7 78/110/7 82/111/7 60/112/7
f 60/112/8 82/111/8 81/113/8 59/114/8
f 59/115/9 81/116/9 77/117/9 57/118/9
f 71/119/4 94/120/4 96/121/4 75/122/4
f 75/122/5 96/121/5 95/123/5 76/124/5
f 76/125/6 95/126/6 93/127/6 72/128/6
f 62/129/7 58/109/7 60/112/7 64/130/7
f 64/130/8 60/112/8 59/114/8 63/131/8
f 63/132/9 59/115/9 57/118/9 61/133/9
f 65/134/6 84/135/6 86/136/6 69/137/6
f 69/138/5 86/139/5 85/140/5 70/141/5
f 70/141/4 85/140/4 83/142/4 66/143/4
f 87/144/7 62/129/7 64/130/7 91/145/7
f 91/145/8 64/130/8 63/131/8 92/146/8
f 92/147/9 63/132/9 61/133/9 88/148/9
f 58/109/12 2/68/12 12/71/12 78/110/12
f 58/109/12 62/129/12 4/69/12 2/68/12
f 4/69/12 62/129/12 87/144/12 17/70/12
f 1/62/10 66/143/10 83/142/10 11/63/10
f 73/149/15 72/128/15 6/2/15 5/1/15 65/134/15 68/150/15
f 65/134/15 5/1/15 13/6/15 84/135/15
f 71/119/10 3/61/10 16/64/10 94/120/10
f 6/2/15 72/128/15 93/127/15 18/7/15
f 80/102/2 79/101/2 11/151/2 83/152/2 85/153/2 86/154/2 84/155/2 13/156/2
f 11/151/2 79/101/2 78/100/2 12/73/2 39/13/2 38/12/2
f 47/15/3 50/20/3 17/79/3 87/103/3 90/108/3 16/157/3
f 16/157/3 90/108/3 89/107/3 18/158/3 93/159/3 95/160/3 96/161/3 94/162/3
f 101/163/16 99/164/16 100/165/16 102/166/16
f 98/167/16 100/165/16 99/164/16 97/168/16
f 103/169/16 98/167/16 97/168/16 104/170/16
f 61/133/17 57/118/17 100/171/17 98/172/17
f 97/168/12 99/164/12 10/173/12 9/174/12
f 97/168/12 9/174/12 20/175/12 104/170/12
f 61/133/17 98/172/17 103/176/17 88/148/17
f 100/171/17 57/118/17 77/117/17 102/177/17
f 10/173/12 99/164/12 101/163/12 15/178/12
f 77/97/2 80/102/2 13/156/2 15/179/2 101/180/2 102/181/2
f 18/158/3 89/107/3 88/106/3 103/182/3 104/183/3 20/184/3
f 127/185/18 117/186/18 118/187/18 128/188/18
f 105/189/19 108/190/19 107/191/19 106/192/19
f 109/193/20 112/194/20 111/195/20 110/196/20
f 114/197/21 115/198/21 116/199/21 113/200/21
f 117/186/18 119/201/18 120/202/18 118/187/18
f 119/201/18 124/203/18 123/204/18 120/202/18
f 121/205/21 116/199/21 115/198/21 122/206/21
f 125/207/21 114/197/21 113/200/21 126/208/21
f 1/209/22 3/210/22 108/211/22 105/212/22
f 106/192/10 107/191/10 112/213/10 109/214/10
f 67/89/2 66/88/2 1/215/2 105/216/2 106/217/2 109/218/2 110/219/2
f 3/220/3 71/91/3 74/96/3 111/221/3 112/222/3 107/223/3 108/224/3
f 74/225/23 73/149/23 68/150/23 67/226/23 110/196/23 111/195/23
f 25/30/24 22/29/24 115/227/24 114/228/24
f 113/200/10 116/199/10 119/229/10 117/230/10
f 113/200/10 117/230/10 127/231/10 126/208/10
f 25/30/24 114/228/24 125/232/24 48/60/24
f 119/229/10 116/199/10 121/205/10 124/233/10
f 115/227/24 22/29/24 37/46/24 122/234/24
f 8/67/25 7/65/25 118/187/25 120/202/25
f 118/187/25 7/65/25 19/66/25 128/188/25
f 8/67/25 120/202/25 123/204/25 14/72/25
f 37/9/2 40/14/2 14/78/2 123/235/2 124/236/2 121/237/2 122/238/2
f 19/80/3 49/19/3 48/18/3 125/239/3 126/240/3 127/241/3 128/242/3
